<svg width="740" height="406" viewBox="0 0 740 406" fill="none" xmlns="http://www.w3.org/2000/svg">
<path d="M740 188.421L737.769 187.774L737.069 187.386L736.241 187.193L733.689 188.224L733.166 188.167L732.093 187.826L731.588 187.867L731.202 188.184L730.803 189.16L730.49 189.607L729.786 190.216L729.486 190.558L729.196 191.036L728.949 191.598L728.868 192.03L728.907 192.502L729.024 193.177L729.456 194.106L730.033 194.661L730.319 195.193L729.87 196.058L729.534 196.463L729.409 196.718L729.433 197.042L729.639 198.207L729.641 198.583L729.505 198.908L728.137 200.804L727.269 201.653L726.987 202.009L726.77 202.445L726.437 203.381L726.255 203.722L725.917 203.998L723.819 204.852L722.066 204.729L721.587 204.928L721.205 205.293L720.488 206.174L719.497 206.695L716.127 206.387L712.099 206.985L711.442 207.461L710.921 208.311L708.524 214.213L708.078 217.203L707.812 218.22L707.479 218.932L707.281 219.524L707.237 220.181L708.687 228.142L708.694 229.031L708.408 230.828L708.491 231.648V231.652L708.775 232.447L710.046 234.552L710.2 235.099L710.112 235.62L709.988 236.106L710.042 236.559L710.201 237.047V237.468L710.009 238.347L709.937 238.894L709.851 239.287L709.627 239.516L708.799 239.608L708.362 239.748L707.987 240.025L707.811 240.469L707.759 240.969L707.657 241.375L707.496 241.737L707.263 242.108L707.104 242.58L707.062 243.074L706.933 243.394L705.728 243.36L703.402 243.724L702.359 243.591L701.991 243.666L701.616 243.874L701.37 244.151L700.933 244.953L700.545 245.348L699.298 246.268L698.774 246.866L698.541 247.018L697.726 247.211L697.461 247.361L697.164 247.655L696.755 248.444L696.379 248.72L695.005 249.022L693.681 249.578L693.183 249.665L692.824 249.492L692.747 249.126L692.908 248.728L693.165 248.308L693.364 247.877L693.4 246.938L693.039 246.151L692.451 245.556L691.805 245.196L690.944 245.132L689.223 245.568L688.403 245.424L687.426 244.951L687.138 244.921L686.838 244.95L686.825 244.954L684.6 244.765L682.666 244.947L682.659 244.95L682.649 244.951L682.643 244.954L681.486 245.631L681.045 245.71L679.769 245.448L678.069 245.458L671.169 242.99L668.069 240.924L667.358 240.58L665.688 240.209L665.325 239.985L664.391 239.156L663.957 238.995L663.463 238.939L662.965 238.971L662.517 239.073L662.056 239.306L661.912 239.607L661.942 240.675L661.888 240.986L661.691 241.551L661.635 241.846L661.657 242.117L661.781 242.632L661.766 242.919L661.489 243.916L661.405 244.436L661.457 244.953L661.548 245.413L661.52 245.86L661.406 246.289L658.751 251.835L657.093 258.121L656.376 259.672L656.257 260.125L656.04 261.547L655.769 262.369L654.564 264.353L653.847 265.885L653.369 267.58L652.898 271.182L652.41 273.556L652.172 274.296L651.659 275.534L650.295 277.897L649.64 280.456L649.071 281.806L648.935 282.536L648.833 283.087L649.485 284.114H649.488L649.491 284.115L650.123 284.426L652.847 284.824L654.707 285.605L655.002 286.109L655.082 287.059L655.036 288.075L654.687 290.406L654.155 292.244L653.331 293.605L652.173 293.809L651.297 293.257L649.746 291.525L648.89 290.928L647.997 290.835L647.027 291.081L643.561 292.841L642.649 293.072L641.924 292.725L641.578 292.323L641.294 292.135L640.061 291.939L639.814 291.762L639.72 291.416L639.699 290.821L639.592 289.941L639.297 288.887L638.828 288.108L638.203 288.061L637.487 287.853L636.715 288.203L635.255 289.256L628.047 291.529L626.568 292.36L625.832 292.631L625.001 292.646L622.788 293.531L622.311 293.549L620.828 293.075L619.948 293.091L617.044 294.181L615.789 294.048L615.386 294.101L615.019 294.41L614.68 295.318L614.384 295.595L613.931 295.661L612.581 295.583L611.285 296.099L609.991 295.884L609.19 295.942L608.435 296.28L607.748 296.936L605.952 298.508L605.109 298.94L604.748 299.221L604.473 299.992L604.937 300.607L607.167 302.025L608.03 302.105L611.271 301.403L611.75 301.457L612.085 301.625L613.014 302.364L615.943 303.506L616.235 303.695L616.329 304.026L616.23 304.362L615.944 304.567L614.766 304.843L614.135 305.136L613.764 305.603L613.74 305.885L613.824 306.118L614.152 306.556L614.27 306.873L614.201 307.164L613.922 307.713L613.439 309.629L613.304 310.666L613.349 311.568L614.076 315.284L614.08 316.273L613.588 318.088L613.459 319.029L613.571 319.492L613.837 319.839L614.427 320.438L614.635 320.853L614.747 321.28L614.79 321.741L614.796 322.249V322.252L614.985 322.781L615.288 323.362L615.945 324.334L618.088 329.979L620.231 335.603L620.184 336.424L619.896 337.198L618.965 338.899L619.248 339.286L619.928 339.469L620.643 339.826L620.879 340.166L621.012 340.601L621.072 341.081L621.087 341.563L621.183 342.03L621.599 342.815L621.695 343.28L621.594 343.81L621.332 344.184L620.971 344.404L620.574 344.477L620.198 344.386L619.279 343.693L618.526 343.657L617.755 344.024L616.341 345.093L614.753 345.773L613.991 346.272L613.755 346.96L614.094 347.587L614.708 348.093L615.948 348.695L616.777 348.814L617.157 349.031L617.367 349.468L617.26 349.972L616.863 350.22L615.947 350.331L614.576 350.845L614.235 351.131L613.37 351.484L613.059 351.52L612.424 351.345L612.119 351.322L611.817 351.506L611.441 352.127L611.04 353.599L610.742 354.324L610.081 355.336L609.924 355.719L609.857 356.254L609.954 356.642L610.1 357.024L610.261 357.983L610.467 358.362L610.944 359.061L611.133 359.491L611.161 359.787L611.056 360.1L610.846 360.581L610.872 360.867L611.28 362.814L611.404 363.203L611.586 363.556L611.839 363.913L612.182 365.669L612.038 366.192L611.832 366.475L611.13 366.849L610.338 366.381L609.793 365.646L609.314 364.805L608.715 364.014L607.539 362.946L606.848 361.921L606.597 361.627L605.833 361.115L601.82 360.249L601.024 360.219L599.563 360.501L597.833 360.392L596.914 360.01L596.42 359.341L595.598 357.372L595.023 356.762L593.589 356.085L592.941 355.43L592.685 354.979L592.498 354.518L592.393 354.018L592.376 353.45L592.479 352.503L592.344 352.255L591.889 352.123L591.174 352.261L589.762 352.979L589.075 352.955L588.375 352.677L587.177 352.608L585.724 352.009L583.535 351.787L583.224 351.626L582.599 351.101L581.854 350.664L580.075 350.039L578.869 349.914L578.071 349.974L577.693 350.115L577.036 350.539L576.725 350.657L576.343 350.634L575.6 350.364L575.25 350.3L574.413 350.42L573.585 350.375L571.641 350.555L570.836 350.419L569.806 349.808L569.402 349.653L568.983 349.605L568.573 349.664L568.41 349.735L568.109 349.935L567.645 350.146L567.431 349.993L567.313 349.857L567.238 349.693L567.124 349.547L565.903 349.252L564.707 349.205L564.329 349.278L563.378 349.739L563.076 349.732L562.726 349.531L562.409 349.269L562.057 349.081L561.336 349.085L560.832 348.912L560.553 348.892L560.276 348.953L559.508 349.328L558.914 349.5L557.13 349.198L556.809 349.195L556.505 349.192L556.207 349.115L555.936 348.898L555.417 348.164L555.217 347.987L554.599 347.759L552.543 347.412L552.189 347.256L551.835 347.317L551.116 347.601L550.315 347.611L549.954 347.67L549.604 347.923L549.22 348.377L549.08 348.461L548.977 348.47L548.647 348.402L548.512 348.434L548.471 348.525L548.448 348.636L548.373 348.727L547.678 349.102L547.332 349.184L546.527 349.164L545.831 349.475L545.453 349.566L544.977 349.482L544.037 349.081L543.56 349.02L543.223 349.167L542.682 349.695L542.356 349.796L542.182 349.704L541.98 349.309L541.793 349.191L541.576 349.202L541.217 349.368L541.024 349.398L539.466 348.918H537.822L536.496 348.594L536.024 348.602L534.839 349.005L534.431 348.978L533.008 348.56L532.3 348.459L531.36 348.534L531.181 348.548L530.908 348.619L530.7 348.808L530.114 350.387L529.921 350.705L529.49 351.153L528.973 351.525L528.445 351.753L527.979 351.773L526.811 351.283L526.45 351.238L525.737 351.314L521.653 350.776L520.447 350.79L519.975 350.68L518.88 350.018L518.447 349.679L517.938 349.376L516.837 349.036L516.32 348.788L515.807 348.335L514.255 347.571L512.188 347.221L511.557 346.977L509.698 345.538L509.44 345.237L508.987 344.45L508.736 344.132L508.393 343.938L507.65 343.735L507.008 343.302L506.244 343.223L505.881 343.032L504.943 342.252L504.422 341.989L503.823 341.851L503.31 341.639L502.387 340.796L501.863 340.501L502.357 341.185L502.548 341.611L502.499 341.965L502.199 342.134L499.345 342.479L499.012 342.369L498.358 341.741L497.995 341.611L497.446 342.037L496.841 343.739L496.163 344.106L495.412 344.076L495.099 344.14L491.993 345.432L491.134 345.931L490.849 346.187L490.645 346.548L489.958 348.55L489.585 349.211L489.437 349.566L489.373 349.988L489.418 350.402L489.641 351.225L489.691 351.673L489.627 352.05L489.144 353.112L488.183 355.276L487.981 356.146L487.932 357.07L488.069 357.891L488.348 358.658L489.655 361.186L489.663 361.201L489.655 361.641L489.144 361.736L488.067 361.296L486.414 361.012L486.2 360.697L486.181 360.169L486.239 359.422L485.964 359.095L485.546 358.94L484.25 358.848L483.928 358.76L483.632 358.587L483.269 358.308L482.587 358.023L481.782 357.996L479.458 358.385L478.842 358.362L478.23 358.19L477.618 357.903L477.156 357.478L476.529 356.315L476.1 355.83L475.536 355.519L472.963 354.895L471.658 354.913L471.023 354.79L468.879 353.345L467.682 352.862L465.358 352.763L465.081 352.839L464.559 353.089L464.286 353.125L463.704 352.957L461.607 351.791L460.491 351.509L460.191 351.379L459.908 351.189L459.627 351.066L459.331 351.127L458.702 351.355L457.429 351.42L456.834 351.613L454.842 352.896L454.529 352.955L454.302 352.865L453.587 352.255L453.403 352.159L453.212 352.176L452.912 352.308L452.038 352.012L451.599 352.029L451.279 352.319L451.086 352.682L450.846 353.031L450.565 353.308L450.243 353.451L449.857 353.375L449.426 353.171L449.024 353.044L448.715 353.202L448.324 353.919L448.099 354.231L447.805 354.427L447.122 354.656L446.968 354.901L446.921 355.419L446.951 356.387L446.855 356.751L446.57 357.044L445.005 357.291L444.326 357.708L444.498 358.627L444.68 358.862L445.311 359.421V359.424L445.313 359.427H445.317L445.47 359.703L445.432 359.992L445.261 360.235L445.013 360.372L444.718 360.344L443.856 359.786L443.581 360.046L443.321 360.458L443.113 360.939L443.001 361.412L443.035 361.676L443.136 361.84L443.181 362.01L443.052 362.294L442.466 363.014L442.257 363.213L441.822 363.629L441.602 364.007L441.701 364.373L442.42 365.092L442.797 365.293L443.325 365.42L442.711 365.922L442.097 366.425L441.756 366.601L441.415 366.775L441.072 366.825L440.729 366.875L440.31 366.758L439.889 366.641L439.674 366.65L439.457 366.659L439.328 366.833L439.197 367.009L439.124 367.234L439.051 367.461L438.953 367.624L438.857 367.787L438.605 368.091L438.35 368.395L438.137 368.792L437.926 369.188L437.761 369.632L437.593 370.076L437.4 370.433L437.208 370.792L436.923 370.927L436.642 371.063L436.426 371.032L436.212 371.003L436.023 370.926L435.831 370.85L435.693 370.708L435.553 370.566L435.489 370.339L435.425 370.111L435.359 369.951L435.291 369.793L435.147 369.631L435.002 369.467L434.837 369.349L434.67 369.23L434.535 369.205L434.402 369.179L433.52 369.562L432.635 369.945L432.245 370.281L431.859 370.617L431.634 371.114L431.409 371.609L431.345 371.822L431.277 372.034L431.163 372.165L431.048 372.294L430.9 372.372L430.75 372.45L430.587 372.508L430.422 372.567L430.265 372.655L430.11 372.745L429.98 372.879L429.849 373.014L429.237 374.077L428.621 375.141L428.391 375.408L428.163 375.677L427.408 376.235L426.656 376.79L426.149 376.975L425.642 377.163L425.501 377.276L425.361 377.39L425.237 377.577L425.113 377.764L424.837 378.088L424.561 378.414L424.186 378.575L423.808 378.735L422.799 378.772L421.79 378.811L420.568 379.151L419.346 379.491L419.191 379.613L419.038 379.734L418.778 380.035L418.521 380.336L417.601 381.065L416.679 381.791L416.163 381.954L415.647 382.119L415.407 382.295L415.165 382.471L415.049 382.786L414.93 383.101L414.965 383.229L414.997 383.356L415.147 383.632L415.299 383.911L415.31 384.036L415.321 384.161L415.214 384.221L415.109 384.285L414.568 384.187L414.031 384.087L413.893 384.124L413.759 384.161L413.409 384.386L413.06 384.61L412.928 384.63L412.795 384.649L412.527 384.553L412.258 384.455L412.113 384.485L411.965 384.517L411.471 384.829L410.979 385.143L410.756 385.362L410.535 385.58L410.443 385.83L410.351 386.08L410.184 386.013L410.015 385.947L409.845 385.999L409.675 386.052L409.257 386.257L408.839 386.463L408.764 386.524L408.689 386.587L408.648 386.672L408.606 386.757L408.631 386.856L408.654 386.955L408.737 387.061L408.821 387.168L408.866 387.2L408.908 387.231L408.933 387.274L408.959 387.318L408.983 387.458L409.009 387.6L409.017 387.799L409.025 387.996L408.883 389.138L408.742 390.28L408.669 390.419L408.598 390.557L408.442 390.709L408.288 390.861L407.979 391.075L407.666 391.288L407.339 391.447L407.014 391.608L406.624 391.659L406.236 391.71L406.049 391.771L405.863 391.833L405.744 391.988L405.63 392.144L405.404 392.532L405.178 392.922L404.557 393.195L403.934 393.468L403.682 393.749L403.436 394.03L403.103 394.987L402.771 395.945L402.59 396.169L402.406 396.395L401.849 396.64L401.684 396.712L401.293 396.883L401.04 397.056L400.789 397.229L400.69 397.508L400.591 397.789L400.55 397.763L400.511 397.736L400.425 397.703L400.341 397.67L400.299 397.648L400.261 397.625L400.257 397.757L400.255 397.888L400.277 398.155L400.301 398.423L400.29 398.539L400.278 398.654L400.221 398.788L400.161 398.924L400.101 398.967L400.045 399.011L399.994 399.073L399.944 399.132L399.909 399.316L399.877 399.5L399.967 400.498L400.06 401.495L400.119 401.722L400.179 401.943L400.254 402.039L400.329 402.134L400.415 402.183L400.503 402.232L400.733 402.286L400.96 402.34L400.952 402.488L400.943 402.637L400.977 402.79L401.009 402.943L401.069 403.088L401.131 403.236L401.209 403.368L401.287 403.501L401.268 403.581L401.251 403.661L401.03 404.024L400.81 404.384L400.983 404.477L401.159 404.569L401.105 404.725L401.048 404.881L400.854 404.995L400.663 405.109L400.421 405.075L400.178 405.038L399.818 404.859L399.456 404.68L399.351 404.662L399.247 404.644L399.162 404.7L399.078 404.758L399.027 404.861L398.976 404.964L398.911 405.047L398.841 405.131L398.704 405.124L398.567 405.117L398.455 405.23L398.344 405.343L398.314 405.403L398.284 405.463L396.149 404.344L394.746 403.607L394.014 403.222L393.404 402.742L392.797 402.263L391.969 401.443L391.14 400.622L390.864 400.467L390.589 400.311L390.231 400.235L389.872 400.157L389.813 400.114L389.753 400.072L389.782 399.978L389.81 399.884L389.892 399.81L389.973 399.736L390.291 399.593L390.609 399.449L390.76 399.328L390.909 399.21L391.043 399.06L391.177 398.909L391.279 398.752L391.377 398.595L391.515 398.285L391.656 397.974L391.789 397.583L391.924 397.193L392.014 396.791L392.102 396.39L392.106 396.05L392.108 395.708L392.033 395.568L391.959 395.428L391.917 395.371L391.872 395.314L391.798 395.274L391.724 395.233L391.803 395.195L391.879 395.157L392.09 395.004L392.298 394.851L392.274 394.828L392.247 394.803L392.16 394.775L392.074 394.746L392.096 394.635L392.119 394.525L392.116 394.499L392.114 394.472L392.08 394.218L392.044 393.963L391.849 393.983L391.656 394.001L391.53 394.269L391.405 394.537L391.31 394.411L391.211 394.284L391.099 394.265L390.988 394.249L390.874 394.302L390.758 394.358L390.649 394.448L390.541 394.537L390.419 394.34L390.301 394.143L390.228 393.679L390.157 393.216L390.065 393.003L389.973 392.79L389.572 392.266L389.173 391.74L389.109 391.607L389.045 391.473L389.024 391.457L389.001 391.441L388.893 391.1L388.782 390.758L388.551 390.907L388.322 391.056L387.798 391.404L387.274 391.751L387.1 391.777L386.926 391.802L386.727 391.733L386.529 391.662L386.149 391.464L385.767 391.265L385.561 391.208L385.354 391.15L383.037 391.287L380.687 391.43L379.215 391.519L376.904 391.656L374.967 391.773L372.325 391.932L370.557 392.036L368.453 392.162L367.707 391.969L367.413 391.892L366.961 391.774L366.559 391.281L366.151 390.788L365.378 387.251L364.601 383.705L364.022 380.726L363.445 377.743L363.129 374.684L362.815 371.618L362.77 371.593L362.725 371.567L362.663 371.553L362.602 371.538L362.534 371.535L362.465 371.532L362.399 371.541L362.33 371.551L360.142 371.541L358.163 371.534L356.175 371.526L353.994 371.517L353.915 371.457L353.838 371.394L353.817 371.263L353.798 371.132L353.863 366.392L353.919 362.374L353.929 361.637L353.983 361.468L354.035 361.299L354.249 361.216L354.462 361.133L354.552 360.922L354.644 360.712L354.689 360.067L354.734 359.422L355.124 353.331L355.514 347.214L352.899 348.628L350.284 350.039L350.129 350.021L349.97 350.003L348.807 347.611L347.449 344.821L346.466 342.798L344.927 339.621L344.569 339.304L344.21 338.987L342.346 337.818L340.479 336.648L339.578 335.697L338.676 334.742L336.725 332.204L334.774 329.664L334.467 329.391L334.165 329.121L333.877 329.075L333.587 329.03L333.262 329.154L332.935 329.277L331.17 330.258L329.372 331.257L327.629 332.224L325.807 333.233L325.492 333.324L325.176 333.415L324.178 333.326L321.669 333.099L319.16 332.87L316.646 332.642L314.136 332.413L311.378 332.162L308.616 331.913L305.856 331.66L303.096 331.409L301.441 331.68L299.788 331.949L298.135 332.218L296.482 332.487L294.827 332.756L293.174 333.024L291.521 333.294L289.868 333.562L288.846 333.749L287.824 333.938L286.802 334.127L285.778 334.315L285.141 334.432L284.501 334.55L283.861 334.668L283.224 334.786L281.728 335.06L281.688 335.067L281.323 334.909L280.956 334.751L279.597 333.195L278.58 332.027L277.561 330.857L276.542 329.685L275.525 328.514L274.484 327.316L273.443 326.117L272.4 324.916L271.361 323.715L270.091 322.254L269.097 321.181L268.105 320.109L266.027 317.864L264.961 316.153L264.785 315.564L264.667 314.258L264.551 313.645L264.223 312.976L263.755 312.45L262.626 311.702L261.036 310.648L258.873 309.213L256.233 307.459L253.205 305.446L249.887 303.235L246.369 300.889L242.744 298.465L239.106 296.031L235.548 293.645L232.161 291.371L229.043 289.273L227.862 288.478L226.282 287.414L223.973 285.857L222.209 284.667L221.08 283.906L220.685 283.637L219.294 282.698L218.8 282.479L218.375 282.439L216.907 282.86L215.817 283.176L214.725 283.493L213.633 283.81L212.543 284.124L211.493 284.437L210.446 284.748L209.399 285.058L208.352 285.371L206.086 286.066L203.82 286.76L201.556 287.455L199.292 288.148L197.594 288.695L195.896 289.242L194.198 289.79L192.498 290.335L190.8 290.882L189.102 291.428L187.406 291.972L185.706 292.517L185.332 292.637L184.008 293.062L182.312 293.607L180.614 294.152L178.916 294.697L177.214 295.243L175.518 295.787L173.82 296.33L172.123 296.875H172.121L172.119 296.876H172.117L172.115 296.879H172.113H172.111L172.109 296.882L172.107 296.883H172.105H172.103L172.101 296.884L172.099 296.885L172.097 296.886L172.095 296.889L172.093 296.89H172.091V296.893L172.089 296.894L172.087 296.895L172.085 296.896L172.083 296.899L172.081 296.902L172.079 296.905V296.908V296.912H172.077V296.915V296.918L172.075 296.921L172.073 296.924V296.927V296.93V296.933V296.937V296.942V296.945V296.948V296.951V296.954L172.077 302.802L172.079 308.627L172.083 314.427L172.085 320.207L172.089 325.962L172.091 331.695L172.095 337.406L172.097 343.095L172.101 348.763L172.103 354.41L172.107 360.035L172.109 365.64L172.113 371.225L172.115 376.789L172.119 382.332L172.123 387.858L170.885 387.74L170.278 387.791L168.66 388.579L166.977 388.822L165.91 389.235L163.624 389.367L163.062 389.177L162.555 388.887L162.179 388.6L161.874 388.189L161.367 386.972L161.148 386.563L160.862 386.239L159.727 385.458L159.094 384.901L158.536 384.223L157.386 382.183L156.21 380.091L155.39 378.983L153.505 376.43L153.316 375.993L153.22 375.506L153.246 374.984L153.321 374.561L153.325 374.151L153.145 373.675L152.714 373.119L149.656 370.3L147.506 368.865L145.682 367.646L142.63 365.608L139.818 363.726L138.502 363.249L137.135 363.059L132.795 363.848L130.02 364.351L126.831 364.932L125.633 365.188L121.637 366.776L120.611 367.39L117.778 368.393L113.9 371.623V371.627L113.894 371.63L111.486 374.038L108.721 376.797L107.975 377.559L107.941 377.083L108.083 376.541L108.778 374.772L108.942 373.849L108.825 372.889L108.636 372.38L108.402 371.983L108.229 371.804L108.048 371.657L107.905 371.461L107.846 371.138L107.968 370.309L107.959 370.067L107.851 369.84L107.329 369.223L107.53 368.878L107.695 368.425L107.807 367.935L107.845 367.486L107.95 367.096L108.208 366.903L108.529 366.774L108.824 366.564L109.712 364.853L110.691 363.513L110.809 363.307L110.901 363.077L110.939 362.793L110.918 362.272L110.936 362.005L111.004 361.808L111.541 361.271L111.693 361.035L111.75 360.834L111.777 360.416L111.817 360.214L112.118 359.237L112.299 358.338L112.303 357.454L112.064 356.518L111.604 355.468L111.252 354.906L110.476 354.409L110.268 353.862L110.261 353.337L110.454 353.151L110.582 353.411L110.719 353.927L110.924 354.433L111.259 354.66L111.426 354.723L112.064 355.164L112.154 355.343L112.183 355.531L112.215 355.662L112.309 355.668L112.562 356.561L112.743 356.997L112.916 357.188L113.115 356.99L113.317 356.491L113.473 355.901L113.535 355.423L113.385 354.343L112.96 353.62L112.301 353.23L111.443 353.152L111.368 352.54L110.448 351.955L108.576 351.273L106.782 351.121L106.521 351.138L106.297 351.195L106.082 351.299L105.855 351.457L105.755 351.599L105.557 352.025L105.473 352.143L104.991 351.948L103.783 350.29L103.111 349.775L102.682 349.739L101.103 349.986L99.895 350.449L99.232 350.918L98.828 351.058L98.459 350.876L97.397 349.609L97.143 349.225L96.745 348.442L96.468 348.01L96.29 347.627L96.103 346.709L95.914 346.225L95.053 345.249L94.817 344.745L94.583 344.66L94.328 344.616L94.172 344.522L94.081 344.205L94.137 343.997L94.243 343.801L94.305 343.51L94.237 343.043L94.026 342.548L93.724 342.26L93.022 342.615L92.133 342.563L91.708 342.667L91.565 342.806L91.451 342.974L91.326 343.114L91.142 343.174L90.912 343.117L90.495 342.875L90.268 342.819L88.593 343.174H86.924L86.688 342.923L86.753 342.355L87.408 340.338L87.597 339.292L87.719 336.03L87.631 335.534L87.06 334.392L86.976 334.161L86.942 333.924L86.918 333.361L86.874 333.142L86.597 332.801L85.88 332.276L85.737 331.858L85.677 331.5L85.525 331.457L85.323 331.548L85.12 331.594L84.89 331.543L84.756 331.49L84.499 331.268L84.013 330.592L82.348 327.091L82.199 326.651L82.139 326.214L82.086 325.974L81.965 325.759L81.838 325.577L81.767 325.436L81.755 325.189L81.799 324.647L81.766 324.408L81.624 324.135L81.081 323.639L80.963 323.428L80.817 322.964L80.543 322.529L80.32 322.044L80.146 321.826L79.959 321.716L79.551 321.593L79.406 321.466L79.26 321.13L79.276 320.909L79.357 320.691L79.406 320.36L79.34 318.264L79.26 317.745L79.158 317.345L78.695 316.696L77.964 316.17L76.425 315.453L70.053 314.27L69.229 313.889L68.841 313.633L68.434 313.266L68.113 312.804L67.98 312.258L68.101 311.12L68.114 310.569L67.98 310.091L68.114 309.903L67.933 309.445L67.836 308.619L67.88 307.786L68.114 307.309L68.413 308.043L68.671 307.713L68.855 307.007L68.914 306.617L69.113 306.485L69.159 306.175L69.162 305.825L69.228 305.562L69.448 305.384L69.61 305.446L69.768 305.614L69.97 305.75L72.829 306.311L73.692 306.27L74.541 305.958H74.988L75.178 306.356L75.455 306.438L77.044 306.444L77.318 306.732L77.521 306.837L77.729 306.703L77.857 306.444L77.923 306.253L78.016 306.135L78.228 306.096L79.17 306.133L79.623 306.233L80.021 306.444L80.664 307.044L81.21 307.733L81.384 307.843L81.826 307.77L82.012 307.828L82.13 308.03L82.083 308.196L81.94 308.308L81.765 308.347L82.06 308.77L82.533 309.099L84.003 309.791L84.524 309.885L85.055 309.864L85.602 309.729L86.009 309.506L86.975 308.521L87.019 308.456L87.05 308.366L87.103 308.269L87.222 308.174L87.347 308.14L87.788 308.174L88.062 308.131L88.562 307.974L88.839 307.985L88.699 308.796L89.219 308.956L90.459 308.691L91.672 309.262L92.077 309.21L92.323 308.893L92.229 308.543L91.97 308.22L91.706 307.985L90.614 307.392L89.88 306.71L89.455 306.657L88.591 306.945L87.712 307.056L87.214 306.597L86.601 304.708L86.173 303.942L85.567 303.387L84.116 302.437L83.93 302.254L83.806 302.086L83.666 301.964L83.017 301.878L82.824 301.796L82.744 301.639L82.545 301.43L81.395 300.684L81.245 300.263L81.201 299.682L81.301 299.167L81.578 298.944L81.74 298.855L81.814 298.645L81.817 298.407L81.764 298.232L81.558 298.095L81.31 298.076L81.099 298.005L81.012 297.709L81.189 297.326L81.603 297.054L82.081 296.892L82.439 296.837L82.896 296.903L83.107 296.863L83.364 296.663L83.489 296.494L83.698 296.141L83.868 295.965L84.648 295.417L85.089 295.198L85.487 295.111L85.795 295.317L86.122 295.749L86.476 296.122L86.871 296.158L87.03 295.829L86.906 295.336L86.649 294.83L86.415 294.475L86.335 294.204L86.413 293.899L86.534 293.6L86.599 293.348L86.572 293.174L86.423 292.78L86.352 292.649L86.476 292.299L86.693 291.861L87.24 291L87.348 290.604L87.523 290.184L89.117 288.252L89.278 287.841L89.34 287.264L89.452 286.778L89.71 287.01L90.195 287.872L90.869 288.198L91.771 288.193L92.663 287.941L93.297 287.521L93.854 286.898L94.018 286.789L94.425 286.813L94.602 286.724L94.872 286.272L95.081 285.764L95.318 285.315L95.659 285.047L95.877 285.292L96.078 285.64L96.221 286.023L96.279 286.38L97.836 286.644L98.123 286.756L98.61 287.25L98.954 287.361L99.274 287.25L99.859 286.756L100.198 286.644L100.608 286.7L101.344 286.942L101.744 286.995L107.342 286.278L108.116 286.505L109.447 286.291L110.305 286.501L113.358 287.86L115.169 288.147L116.073 288.618L116.52 288.762L118.196 288.571L118.672 288.665L119.666 289.045L120.117 289.097L120.497 288.962L121.252 288.51L121.677 288.411L121.788 288.358L122.005 288.111L122.108 288.046L122.556 288.179L122.603 288.22L122.725 288.138L122.889 287.988L123 287.781L122.973 287.52L122.641 287.298L120.745 286.931L120.593 286.787L120.487 286.612L120.365 286.467L120.187 286.361L119.637 286.291L118.802 286.037L116.52 284.887L116.075 284.783L115.905 284.689L115.57 284.236L115.44 284.094L115.269 284.015L114.608 283.918L113.72 283.512L113.416 283.285L113.506 282.957L113.409 282.735L113.298 282.549L113.347 282.325L113.493 282.051L113.499 281.861L113.449 281.679L113.417 281.436L113.445 280.827L113.547 280.354L113.755 280.046L114.096 279.938L114.392 279.74L114.603 279.279L114.901 278.332L115.597 277.103L115.901 276.742L116.096 276.616L116.543 276.439L116.707 276.294L117.331 275.408L117.568 274.955L117.914 273.961L118.197 273.444L118.723 272.891L118.882 272.655L118.967 272.432L119.134 271.856L119.251 271.576L119.639 270.872L119.726 270.472L119.638 269.996V270.156L119.552 269.761L119.649 269.425L120.063 268.822L120.218 268.459L120.302 268.03L120.469 266.232L120.997 263.909V262.094L120.481 260.727L119.658 259.653L118.747 258.711L119.121 258.769L119.664 259.255L120.006 259.428V259.233L119.682 258.993L119.524 258.587L119.517 258.1L119.638 257.622L119.303 257.795L118.896 258.206L118.48 258.508L118.128 258.353L118.096 257.823L118.332 257.117L118.883 256.008L118.914 256.495L119.14 256.752L119.458 256.774L119.75 256.546L119.892 256.154L119.972 255.187L120.119 254.751L120.29 255.283L120.436 255.148L120.579 254.725L120.738 254.393L120.912 254.331L121.328 254.403L121.493 254.393L121.705 254.274L121.79 254.183L121.864 253.853L121.921 252.822L121.566 252.217L121 251.93L120.435 251.859L120.074 251.71L119.959 251.344L120.006 250.501L119.67 248.65L119.331 247.958L119.251 247.618L119.098 247.457L118.321 247.552L118.016 247.536L117.689 247.193L116.99 246.122L116.707 245.896L115.893 245.914L114.221 246.256L113.218 246.092H111.177L110.735 245.976L110.394 245.769L109.767 245.065L109.449 244.923L108.299 244.739L107.952 244.794L107.779 245.03L107.708 245.324L107.704 245.993L107.635 246.252L106.815 247.319L106.51 247.584L104.789 248.205L104.296 248.237L103.694 247.799L103.458 247.843L103.311 248.06L103.351 248.421L103.47 248.505L103.948 248.692L104.103 248.78L104.217 248.948L104.338 249.202L104.435 249.496L104.475 249.79L104.367 249.875L102.077 249.719L101.63 249.502L101.453 249.375L101.338 249.262L101.276 249.067L101.258 248.697L101.158 248.732L100.935 248.552L100.35 247.923L100.164 247.807L100.037 247.662L99.999 247.336L100.102 247.159L100.3 246.958L100.445 246.72L100.38 246.435L100.02 246.33L99.697 246.797L99.325 247.789L98.976 247.944L98.401 247.914L97.804 247.759L97.39 247.534L97.962 246.767L98.145 246.599L97.756 246.472L97.314 246.668L96.524 247.174L96.142 247.173L95.757 246.999L95.399 246.705L95.106 246.346L94.409 245.788L94.166 245.336L94.533 244.208L94.496 243.664L94.245 243.258L93.794 243.182L93.44 243.476L93.278 243.993L93.175 244.573L92.992 245.064L92.653 245.106L92.286 244.641L91.816 243.709L91.474 243.366L91.029 243.144L89.855 242.937L88.841 242.552L86.517 242.04L85.774 241.564L85.311 241.671L84.493 242.261L83.784 242.638L81.393 243.184L81.053 243.388L80.527 244.109L80.212 244.269L79.947 244.181L79.54 243.797L79.342 243.711L79.144 243.797L79.036 243.99L79.017 244.181L79.094 244.269L78.992 244.508L77.537 247.006L77.224 247.253L77.041 246.799L77.103 246.491L77.452 245.959L77.536 245.617L77.433 245.44L77.204 245.584L76.557 246.286L76.094 246.551L75.607 246.667L75.24 246.519L74.967 246.474L74.864 247.012L74.802 248.258L74.652 248.672L74.413 249.074L74.117 249.29L73.8 249.143L74.13 248.675L74.329 248.272L74.28 247.988L73.869 247.882L73.251 248.086L73.126 248.161L72.915 248.378L72.75 248.32L72.614 248.156L72.02 247.635L71.833 247.537L71.683 247.499L71.601 247.503L71.51 247.608L71.34 247.881L70.758 249.587L70.463 249.881L70.548 249.546L70.588 248.619L70.345 248.829L70.204 249.136L70.101 249.454L69.968 249.701L69.841 249.765L69.499 249.81L69.35 249.881L69.219 250.004L69.138 250.11L68.364 251.573L67.992 252.005L67.669 251.948V251.696L67.791 251.368L67.85 251.082L67.669 250.96L67.438 251.029L66.866 251.398L65.246 253.118L64.728 254.018L64.424 254.398L64.064 254.556L63.383 254.475L63.131 254.556L62.953 254.699L62.67 255.114L62.514 255.288L61.876 255.564L61.677 255.955L61.426 255.963L60.904 255.827L60.646 256.071L60.606 256.549L60.5 256.887L60.037 256.707L59.814 256.324L59.665 256.186L59.476 256.283V256.852L59.414 257.116L59.23 256.994L58.858 256.514L58.619 256.334L58.42 256.365L58.388 256.569L58.451 257.233L58.42 257.44L57.244 255.915L56.97 255.771L56.917 256.271L57.047 257.44L56.708 257.237L56.519 257.391L56.38 257.704L56.179 257.976L56.029 257.371L55.798 257.044L54.714 256.56L54.401 256.355L54.201 256.015L54.189 255.468L54.192 256.302L54.248 256.723L54.499 257.037L54.688 257.71L54.824 257.977L54.62 257.958L54.307 257.817L54.127 257.782L53.966 257.696L53.979 257.494L54.054 257.26L54.064 257.083L53.992 256.983L53.634 256.626L53.461 256.507L53.365 256.621L53.328 256.805L53.324 256.904L52.746 256.792L52.1 256.542L51.541 256.16L51.221 255.647L51.359 256.317L52.547 257.679L52.83 258.515L52.473 258.365L51.804 258.334L51.726 258.352L51.471 258.019L51.297 257.625L51.085 257.324L50.727 257.279V257.441L51.028 257.737L51.081 258.291L51.189 258.827L51.658 259.069L52.336 259.786L52.408 260.022L52.442 260.297L52.418 260.586L52.336 260.858L51.59 260.299L51.239 259.944L50.975 259.59L50.723 259.16L50.514 258.891L50.225 258.751L49.737 258.712L49.94 258.873L50.095 259.035L50.197 259.28L50.232 259.687L50.316 259.937L50.975 260.663L50.904 260.708L50.727 260.858L50.469 260.67L49.039 260.208L48.834 260.216L48.737 260.324L48.777 260.594L48.921 260.759L49.113 260.84L49.299 260.859L49.6 261.086L49.715 261.584L49.746 262.081L49.792 262.306L49.804 262.456L49.805 262.458L46.291 260.442L44.963 259.385L44.204 258.623L43.825 258.417L43.312 258.412L42.866 258.512L42.422 258.493L41.315 257.604L40.851 257.055L40.345 256.624L39.624 256.447L37.957 256.418L37.344 256.164L37.772 255.55L37.48 255.341L37.39 254.974L37.341 254.587L37.174 254.318L36.511 253.916L36.159 253.765L35.816 253.723L36.25 253.127L36.733 251.833L37.656 251.065L38.77 250.836L39.828 251.163L40.202 251.504L40.481 251.934L40.968 252.941L41.412 253.144L44.181 252.624L44.747 252.167L45.801 250.871L40.202 242.093L37.464 234.952L37.277 234.31L37.082 233.863L36.814 233.671L36.142 233.592L35.496 233.358L35.017 232.916L34.109 231.655L34.102 231.651L30.728 225.764L29.607 224.806L28.375 224.237L21.223 224.347L17.339 222.497L16.919 222.457L16.593 222.701L16.496 223.101L16.507 224.723L16.389 225.963L16.232 226.487L15.968 226.554L12.613 224.213L11.999 223.618L11.696 223.205L11.617 222.89L11.72 222.558L11.958 222.087L12.083 221.92L12.201 221.831L12.292 221.721L12.327 221.496L12.267 221.337L11.657 220.313L10.38 218.717L10.255 218.405L10.512 218.182L11.937 217.297L12.682 216.634L12.933 216.093L12.605 215.758L11.618 215.648L11.33 215.299L11.339 214.811L11.475 214.351L11.564 213.874L11.425 213.329L11.313 213.158L10.909 212.733L10.817 212.485L10.931 212.303L11.12 212.154L11.24 212.011L11.485 211.497V211.479L11.48 211.241L11.246 210.851L10.872 210.58L9.077 210.075L4.548 208.496L0.0200005 206.915H0.00699997L0 206.906L0.00600052 206.89L0.0189991 206.871L2.571 199.839L4.992 193.136L5.43 192.532L6.063 192.044L7.424 191.307L7.84 190.968L8.185 190.659L9.076 189.467L9.831 188.1L10.177 186.624L9.971 185.21L9.076 184.026L6.385 181.975L5.378 181.581L6.509 174.803L7.639 167.991L8.05 166.842L8.702 166.203L12.666 164.434L13.902 163.165L15.046 161.69L15.405 160.897L15.388 159.874L14.399 158.489L14.255 157.702L14.457 157.32L15.116 156.684L15.291 156.261L15.195 155.823L14.945 155.524L14.792 155.187L14.99 154.638L15.302 154.366L16.559 153.835L16.814 153.524L17.325 152.327L17.405 152.138L17.965 151.328L18.721 150.614L19.544 150.17L20.312 150.167L20.772 150.504L21.955 152.048L22.77 152.509L23.027 152.787L23.229 153.157L23.35 153.439L23.523 153.648L23.876 153.79L24.098 153.927L24.937 154.914L25.291 155.44L26.004 156.078L26.732 157.178L27.449 157.83L27.578 158.171L27.663 158.557L27.793 158.949L28.019 159.255L28.922 159.987L29.317 160.739L29.491 161.524L29.609 162.331L29.841 163.146L29.967 163.406L30.15 163.966L30.275 164.214L30.485 164.452L31.202 165.054L31.554 165.714L31.685 166.331L31.906 166.744L32.535 166.792L33.057 166.689L33.226 166.777L34.084 167.607L35.136 168.231L35.359 168.287L35.593 168.138L36.011 167.555L36.251 167.349L39.955 165.883L41.786 164.819L43.188 163.147L43.481 162.666L43.617 162.389L43.621 162.093L43.407 160.985L43.252 160.524L43.004 160.213L41.754 159.813L41.72 159.078L41.866 158.078L41.538 157.005L40.776 155.469L40.276 153.512L39.789 149.434L39.866 147.443L39.77 146.561L39.319 145.935L38.394 145.751L37.95 145.499L37.866 144.938L38.151 144.566L38.6 144.615L40.97 146.05L41.815 146.247L42.615 146.093L45.917 143.603L47.542 141.475L48.297 140.797L50.827 140.168L52.38 139.509L53.087 138.894L53.364 137.927L53.034 137.025L52.419 136.283L51.981 135.57L52.194 134.756L52.632 133.988L52.802 133.563L52.953 132.618L53.126 132.087L53.353 131.614L53.596 131.316L54.023 131.206L55.466 131.648L59.802 131.608L60.107 131.395L60.957 130.211L63.566 127.929L64.325 127.549L67.562 126.887L69.698 125.803L70.004 125.535L70.125 125.25L70.098 124.885L69.971 124.375L69.92 123.82L70.086 123.554L70.36 123.375L70.62 123.096L70.56 122.979L70.406 122.809L70.318 122.623L70.46 122.46L70.681 122.396L71.76 122.342L72.091 122.23L72.337 121.963L72.48 121.452L72.91 121.382L73.194 121.277L73.355 120.977L73.43 120.321L73.263 118.635L73.321 118.204L73.638 117.862L73.982 117.767L74.233 117.541L74.268 116.816L74.342 116.177L74.671 116.194L75.385 116.734L76.228 116.75L76.381 116.88L76.034 117.368L75.738 117.898L75.959 118.15L76.423 118.206L76.848 118.153L77.651 117.826L78.129 117.284L78.198 116.449L77.344 114.029L77.286 113.057L77.7 112.56L78.676 112.76L79.009 112.965L79.344 113.264L79.632 113.655L79.825 114.131L80.123 114.668L80.571 114.885L84.997 115.182L85.368 115.047L85.772 114.824L86.158 114.715L86.484 114.918L86.926 115.702L87.147 115.956L87.51 116.125L88.308 116.149L88.66 116.342L88.842 116.918L88.827 117.579L88.683 118.028L88.426 118.323L88.067 118.511L86.3 118.84L86.207 119.067L86.411 119.497L86.701 119.967L86.868 120.316V120.324L87.433 120.932L88.796 121.064L90.288 120.826L91.25 120.321L91.56 119.865L91.789 119.409L92.062 119.105L92.506 119.095L92.97 119.304L93.161 119.567L93.206 119.986L93.232 120.66L93.648 121.524L94.48 121.441L95.404 120.88L96.092 120.317L96.104 119.243L95.829 118.28L95.774 117.398L96.779 116.244L97.335 115.409L97.666 115.076L98.166 114.882L98.674 114.925L99.177 115.138L99.65 115.447L100.12 115.607L100.676 115.679L101.232 115.649L101.7 115.495L102.048 115.157L102.452 114.232L102.718 113.823L103.191 113.555L104.207 113.636L104.714 113.585L105.102 113.26L105.331 112.376L105.613 112.116L106.104 112.432L106.417 113.41L106.643 114.574L106.88 115.453L108.092 117.779L108.598 119.672L108.714 119.967L108.92 120.323L109.203 120.721L109.55 121.05L109.927 121.282L110.069 121.327L110.457 121.061L112.063 121.168L112.151 121.409L112.355 121.297L112.582 121.023L112.737 120.782L112.892 120.628L113.109 120.539L113.545 120.485L113.672 120.385L113.758 120.168L113.891 119.956L114.164 119.873L114.344 119.971L114.73 120.378L114.906 120.486L115.913 120.397L116.28 120.536L116.031 121.062L116.404 121.124L116.872 121.403L117.145 121.475L117.426 121.389L117.669 121.164L117.898 120.9L118.134 120.683L118.827 120.406L121.003 120.485L120.848 119.97L120.932 119.74L121.159 119.685L121.436 119.692L121.606 119.745L121.69 119.874L121.754 120.037L121.868 120.189L122.035 120.26L122.151 120.211L122.25 120.123L122.362 120.088L123.723 120.287L123.994 120.243L124.428 120.02L124.801 120.294L124.848 120.286L125.533 120.568L125.748 120.837L126.119 121.526L126.368 121.794L128.216 122.559L128.978 123.09L129.21 123.344L129.349 123.815L129.194 124.048L128.561 124.363L128.902 124.771L128.9 125.248L128.818 125.747L128.917 126.207L129.531 126.832L129.795 127.189L129.919 127.711L130.363 128.215L133.694 129.232L134.623 129.064L135.11 129.203L135.814 129.754L136.164 130.131L136.591 131.119L136.994 131.37L137.938 131.518L138.294 131.784L138.449 132.211L138.627 133.328L138.779 133.722L138.912 133.98L138.974 134.267L138.907 134.755L139.472 135.465L139.788 135.744L140.503 136.177L140.76 136.524L140.988 136.913L141.269 137.289L141.709 137.563L143.175 137.829L143.368 137.97L143.699 138.307L143.875 138.428L144.684 138.613L144.942 138.743L145.075 138.983L145.111 139.257L145.064 139.547L144.942 139.825L143.916 141.169L143.779 141.746L143.743 143.014L143.648 143.562L143.253 144.855L143.152 145.425L143.221 145.981L143.509 146.585L144.166 147.471L144.527 147.812L144.941 148.084L145.319 148.16L146.154 147.954L146.248 147.931L146.986 147.618L148.003 146.739L148.523 145.905L148.474 145L147.849 142.929L147.841 142.329L148.064 141.255L148.051 140.664L147.963 140.482L147.688 140.167L147.628 139.941L147.682 139.691L147.974 139.193L148.079 138.949L147.834 137.819L146.845 137.248L145.8 136.94L145.382 136.601L145.616 136.343L145.957 136.161L146.161 135.884L145.787 134.799L145.941 134.45L146.284 134.251L147.834 133.748L148.268 133.742L148.695 133.867L149.077 134.076L149.79 134.746L150.975 135.336L151.329 135.711L151.874 136.44L152.471 137.056L155.252 137.863L155.533 138.495L155.499 139.625L155.909 140.362L159.92 144.128L160.354 144.408L160.687 144.516L161.018 144.485L161.922 144.23L162.399 144.223L162.86 144.357L163.283 144.674L163.547 145.119L163.693 145.581L163.884 145.961L164.719 146.313L165.005 146.595L165.559 147.405L166.342 147.971L166.964 147.723L168.243 146.356L171.276 144.656L173.931 142.425L174.315 141.765L174.991 138.307L175.175 137.634L175.372 137.255L175.672 137.165L177.181 137.858L177.732 137.978L178.219 137.877L178.586 137.532L178.734 137.086L178.854 136.037L179.116 135.754L180.037 135.616L180.331 135.227L180.329 134.837L180.119 134.009L180.134 133.581L180.306 133.239L180.592 132.919L181.169 132.446L181.706 132.641L183.311 135.004L183.674 135.167L184.973 135.431L185.319 135.394L185.358 135.074L185.232 134.598L184.865 133.669L184.826 133.116L185.084 132.722L185.473 132.464L185.827 132.317L186.271 132.241L186.565 132.364L187.241 132.909L187.694 133.071L188.173 133.061L188.647 132.923L189.093 132.705L189.55 132.585L191.074 132.748L191.93 132.545L193.117 131.793L193.417 131.676L193.666 131.854L193.902 132.437L194.059 133.548L194.196 134.051L194.488 134.259L194.915 134.277L195.261 134.377L195.562 134.623L195.845 135.089L196.01 135.556L196.237 136.577L196.396 137.039L196.675 137.492L197.008 137.819L198.193 138.495L198.644 138.627L199.09 138.606L199.521 138.366L199.837 137.953L200.037 137.515L200.271 137.132L200.689 136.88L201.419 136.967L203.104 137.51L203.705 137.167L203.975 136.321L203.986 135.384L203.81 133.483L203.922 132.425L204.257 131.746L204.545 131.107L205.041 131.004L205.867 131.507L206.155 131.576H207.144L207.376 131.684L207.539 131.848L207.829 132.272L208.013 132.322L208.524 132.036L208.764 131.968L210.135 131.733L210.259 131.771L210.343 131.906L210.36 132.087L210.358 132.259L210.382 132.36L210.794 132.674L211.281 132.919L211.772 132.961L212.188 132.663L212.402 132.148L212.567 131.53L212.79 131.007L213.179 130.788L213.593 130.678L214.323 130.232L214.594 130.465L215.141 131.039L215.366 131.415L215.426 131.813L215.454 132.191L215.583 132.515L215.946 132.715L218.165 132.766L218.944 133.131L219.515 133.875L219.654 135.085L219.54 135.623L219.34 136.044L219.078 136.383L218.78 136.685L218.638 137.072L218.704 137.607L218.882 138.125L219.09 138.459L219.434 138.529L220.35 138.462L220.535 138.752L220.402 139.856L220.453 140.239L220.773 140.564L221.234 140.608L221.773 140.462L222.284 140.416L222.658 140.77L222.959 141.712L223.12 142.056L223.438 142.404L224.801 143.446L225.511 143.754L230.43 144.193L230.827 144.318L231.123 144.71L231.327 145.137L231.546 145.4L231.804 145.525L232.12 145.54L233.854 145.116L234.781 145.094L235.515 145.571L235.876 145.989L236.835 146.379L237.06 146.554L237.006 147.295L236.551 147.501L235.516 147.335L235.037 147.766L235.02 148.192L235.301 148.616L236.325 149.545L236.909 149.269L237.501 148.65L238.126 148.14L239.047 147.986L240 148.04L240.891 147.868L241.634 147.038L242.422 145.341L242.654 144.958L243.232 144.266L243.434 143.88L243.515 143.392L243.412 142.391L243.425 141.823L243.526 141.333L244.286 139.433L244.412 139.208L244.575 139.025L245.358 138.731L246.481 138.642L247.44 139.004L247.728 140.056L247.777 141.108L248.174 141.929L248.768 142.569L249.42 143.076L250.416 143.57L257.99 144.482L259.799 144.19L264.815 142.485L269.831 140.778L270.41 140.203L270.824 139.331L271.094 138.132L271.366 135.552L271.523 134.759L272.388 129.96L272.768 128.618L273.369 127.816L274.161 127.372L275.114 127.108L274.799 126.969L273.837 126.546L273.29 126.035L272.85 125.236L272.12 122.997L271.751 122.4L271.674 122.265L271.019 122.078L270.223 121.568L269.543 121.283L269.288 121.318L268.857 121.463L268.614 121.479L268.371 121.417L267.749 121.065L267.311 120.966L266.062 121.065L265.654 121.006L264.935 120.746L264.566 120.687L263.969 120.724L263.78 120.687L263.623 120.615L263.513 120.533L263.434 120.442L263.367 120.343L263.285 120.222L263.163 120.093L262.566 119.659L262.349 119.39L262.089 118.823L261.958 118.46L261.904 118.2L261.887 117.252L261.958 116.881L261.662 116.872L254.307 116.685L254.138 116.631L254.031 116.417L254.005 116.124L253.949 115.859L253.756 115.72L251.784 115.385L251.408 115.126L251.425 114.518L251.706 114.142L252.554 113.728L252.899 113.464L252.968 113.236L252.949 112.719L253.052 112.541L253.413 112.274L253.589 112.069L253.666 111.834L253.164 111.214L249.947 110.414L248.09 109.023L247.476 108.774L247.266 109.06L247.109 109.515L246.646 109.772L246.075 109.658L245.701 109.291L244.877 107.385L244.716 106.916L244.744 106.43L245.032 105.733L245.514 105.732L248.648 105.728L251.273 102.882L252.688 101.706L254.15 101.056L255.163 101.095L256.172 101.313L257.151 101.272L258.069 100.528L258.796 99.331L259.127 99.024L260.857 98.278L261.218 98.019L262.137 96.984L262.47 96.693L263.243 96.237L263.812 95.646L262.69 94.089L262.389 93.663L262.29 93.134L262.209 91.911L262.085 91.378L261.937 91.096L261.71 90.943L260.032 90.367L259.734 90.107L259.644 89.617L259.725 88.207L259.708 87.623L259.616 87.156L259.521 86.961L259.339 86.93L258.407 87.032L258.096 87.007L257.864 86.828L257.763 86.58L257.727 86.383L257.647 86.217L257.411 86.059L257.233 85.894L257.156 85.638L257.149 85.326L257.173 84.991L257.583 83.766L258.353 83.288L259.237 83.08L259.992 82.67L260.245 82.3L260.678 81.457L261.004 81.068L264.148 78.166L262.644 76.717L262.629 76.694L262.644 76.685L264.039 76.676L264.694 76.49L265.305 76.057H265.307L265.311 76.052L265.313 76.051L265.912 75.54L266.537 75.436L267.164 75.639L267.776 76.052L268.295 76.277L268.859 76.357L269.419 76.285L269.913 76.052L270.776 75.31L271.21 75.188L271.749 75.46L272.412 76.054L273.492 77.156L274.059 77.382L274.619 77.028L274.971 76.705L275.323 76.623L276.093 76.733L277.941 76.484L278.606 76.727L279.803 77.687L280.468 77.784L281.838 77.251L282.523 76.745L282.912 76.058V76.053L283.265 74.574L283.308 73.891L283.163 73.17L282.714 72.426L282.124 72.081L278.219 71.287L276.935 70.734L275.864 69.708L275.124 68.64L274.74 68.506L273.004 69.469L272.407 69.553L271.75 69.358L269.971 67.947L269.336 67.698L267.61 67.711L266.766 67.507L266.038 66.82L265.677 66.098L265.512 65.338L265.576 64.581L265.917 63.867L266.732 62.668L266.893 62.256L266.973 61.89L267.044 60.955L267.353 60.639L267.821 60.529L268.302 60.634L268.654 60.954L269.04 61.619L269.495 62.254L270.004 62.669L270.56 62.68L271.013 62.354L271.94 61.358L272.416 60.958L273.152 60.556L272.663 58.551L272.453 58.123L272.204 58.024L270.161 58.038L269.635 58.219L268.817 59.356L268.177 59.441L265.634 58.823L265.291 58.608L265.166 58.413L264.964 57.917L264.837 57.712L263.936 57.43L261.412 57.272L260.921 56.688L261.365 55.947L263.228 56.598L263.865 56.034L263.904 55.654L263.887 55.273L263.902 54.901L264.037 54.538L264.322 54.366L265.028 54.259L265.187 53.917L265.401 53.199L265.841 52.646L266.33 52.169L266.699 51.671L266.751 50.983L266.302 50.578L265.673 50.301L265.175 49.981L264.817 49.435L264.632 49.277L264.274 49.18L263.085 49.151L262.694 49.053L262.574 48.735L262.538 48.389L262.581 48.034L262.693 47.701L263.021 47.249L263.407 47.017L264.248 46.822L264.838 46.794L265.724 46.981L265.844 47.125L265.911 47.341L266.046 47.646L266.286 48.014L266.587 48.303L266.911 48.286L267.211 47.726L267.269 47.199L267.172 46.672L266.803 45.678L266.739 45.5L266.599 44.888L267.62 44.812L268.073 44.572L268.408 44.033L268.737 43.608L269.211 43.506L270.66 43.727L270.941 43.99L271.462 45.108L271.763 45.361L273.107 45.68L273.169 46.65L273.309 46.933L273.633 47.058L273.972 46.979L274.163 46.693L274.26 46.244L274.324 45.679H276.052L276.292 45.903L276.537 46.017L276.771 45.965L277.17 45.453L277.428 45.426L277.701 45.526L277.958 45.678L278.095 46.272L278.129 46.667L278.241 46.951L278.608 47.21L279.247 47.408L281.276 47.538L281.27 45.685L281.253 45.501L281.257 44.915L288.687 44.63L289.063 44.69L289.292 45.002L289.254 45.685H289.25L288.449 46.233L288.214 46.638L288.275 47.244L288.604 47.761L289.483 48.237L289.864 48.668L290.039 48.95L290.248 49.2L290.478 49.358L290.725 49.382L291.014 49.235L291.084 49.02L290.93 48.061L290.842 47.829V47.588L291.057 47.199L291.834 46.375L291.523 45.822L291.411 45.677L291.183 44.622L291.734 43.798L292.606 43.257L293.351 43.055L294.926 42.951L295.92 42.523L296.269 42.593L297.064 42.999L297.556 43.032L299.061 42.588L300.858 42.811L301.357 42.563L301.633 42.047L301.595 41.602L301.426 41.144L301.317 40.579L301.566 40.081L302.163 39.898L303.242 39.939L305.277 40.421L305.332 40.434L305.997 40.429L306.513 40.19L307.472 39.402L307.977 39.159L309.198 39.082L312.164 37.722L312.804 37.775L313.339 38.055L314.834 39.224L315.334 39.361L315.585 39.462L315.776 39.05L316.362 38.809L317.019 38.699L317.585 38.395L317.903 37.573L317.328 36.794L317.061 36.296L317.086 36.072L317.228 35.944L317.369 35.707L317.523 35.576L317.863 35.952L318.078 36.064L318.312 36.104L318.52 36.072L318.674 35.949L318.97 35.561L319.14 35.438L319.4 35.42L320.196 35.649L320.642 35.551L321.524 35.114L322.077 34.989L322.446 34.811L322.557 34.697L322.769 34.532L323.032 34.58L323.49 34.803L325.278 34.59L325.496 34.492L325.672 34.274L325.808 34.054L325.904 33.955L326.12 33.989L326.502 34.135L326.707 34.169L327.162 34.06L327.923 33.534L328.158 33.752L329.266 34.727L329.839 35.068L330.489 35.138L331.655 34.537L332.791 33.585L333.94 33.001L335.155 33.502L336.593 35.448L336.853 35.727L337.106 35.922L337.374 36.018L337.687 35.989L337.814 35.911L338.031 35.681L338.162 35.643L338.707 35.874L338.896 35.866L339.417 34.855L338.844 31.561L339.223 30.833L339.172 30.359L339.147 30.219L339.149 29.476L339.441 29.111L341.747 28.064L342.268 28.033L343.303 28.334L343.693 28.215L343.823 27.553L343.618 26.42L343.707 26.005L344.207 25.842L345.968 26.068L348.475 26.95L349.037 26.835L349.514 26.319L350.022 25.359L350.541 24.592L351.129 24.183L352.458 23.658L352.803 23.936L352.962 25.989L353.266 26.497L355.446 25.702L361.764 23.396L362.913 23.215L365.227 23.31L366.362 23.135L366.763 22.886L367.452 22.143L367.839 21.915L371.382 21.743L371.941 21.61L373.006 20.996L373.577 20.855L374.944 20.874L375.657 20.693L376.132 20.199L376.504 19.447L376.937 18.933L377.433 18.725L378.64 19.066L379.819 18.816L383.075 18.915L384.447 18.474L385.524 17.534L386.242 16.297L386.601 15.825L387.135 15.454L387.777 15.249L388.337 15.29L390.086 16.113L392.919 15.7L393.237 15.353L393.369 14.552L393.771 14.366L393.929 14.073L394.005 13.659L394.164 13.103L394.508 12.87L395.013 12.831L395.423 12.658L395.494 12.02L394.044 11.111L393.363 10.36L393.661 9.45002L393.258 9.03503L393.12 8.93202L394.275 8.27902L394.664 8.18702L394.93 8.28802L395.162 8.46502L395.45 8.58802L395.811 8.57002L396.736 8.15402L397.178 8.16502L398.558 8.54102L399.768 8.09602L400.186 8.07502L400.665 8.20102L400.877 8.13702L401.068 7.82402L401.111 7.50803L401.014 6.89703L401.029 6.63203L401.323 6.25803L402.166 5.67603L402.298 5.18702L402.246 4.51402L402.273 3.96202L402.392 3.45002L402.604 2.90302L403.001 3.14803L403.213 3.18202L404.814 3.44202L405.238 3.65702L405.614 4.01003L406.273 5.11602L406.629 5.57502L407.043 5.76502L407.495 5.50302L407.681 5.09602L407.724 4.55302L407.615 3.34103L407.164 3.04903L406.801 2.89302L406.539 2.57102L406.335 1.48502L406.26 1.24802V1.02402L406.417 0.774025L406.71 0.572021L406.997 0.546021L410.248 1.71402L410.705 2.33902L411.008 3.31902L411.399 4.00703L412.125 3.75903L413.647 2.23602L414.087 2.11903L416.673 3.25502L420.234 3.74403L422.561 5.07703L423.071 5.56902L424.543 7.62902L425.062 7.98902L426.506 8.14502L427.206 8.40802L429.713 10.102L430.014 10.149L430.334 9.84802L430.926 8.83802L431.3 8.52902L432.894 7.97902L433.072 7.79903L433.123 7.55502L433.132 7.28603L433.174 7.03703L433.39 6.54102L434.135 5.35402L434.478 5.22402L434.632 5.28603L435.905 5.80103L436.31 5.78902L436.729 5.67603L437.13 5.44302L437.473 5.06202L438.203 4.53202L439.208 4.40702L440.229 4.60102L441.004 5.01003L440.718 5.41003L440.435 5.92002L440.311 6.45902L440.511 6.94402L441.756 8.61102L443.535 10.983L443.844 11.855L443.857 12.242L443.844 12.632L443.85 12.689V12.805L443.844 12.862L443.775 13.734L443.701 14.156L443.595 14.56L443.479 15.151L443.795 15.987L443.65 16.364L443.445 16.731L443.306 17.272L443.278 17.842L443.411 18.295L444.076 19.076L444.207 19.509L444.151 20.367L444.366 21.41L445.109 22.198L446.019 22.7L446.738 22.888L447.524 22.878L447.893 22.983L448.221 23.29L448.837 24.284L449.052 24.93L449.056 25.634L448.828 26.066L448.426 26.31L447.5 26.586L446.93 27.125L446.815 27.989L446.942 30.209L446.9 30.405L446.887 30.579L446.917 30.717L447.28 31.135L447.355 31.5L447.262 32.555L447.312 32.744L447.447 32.848L447.762 32.959L447.844 33.099L447.846 33.343L447.802 33.876L447.805 34.301L447.71 35.623L446.692 35.828L446.362 35.823L446.011 35.701L445.34 35.32L444.971 35.192L444.317 35.16L443.894 35.41L443.727 36.031L443.841 37.111L444.958 37.189L445.199 37.325L445.293 37.822L445.277 38.555L445.19 39.269L445.052 39.713L445.748 40.074L446.021 40.358L446.303 40.816L446.859 41.943L447.177 42.305L447.558 42.318L448.206 41.864L448.708 41.263L449.624 39.62L450.064 39.248L450.592 39.352L451.169 39.625L451.738 39.761L452.291 39.74L452.465 39.857L452.633 40.16L452.74 40.565L452.899 42.068L453.298 42.009L454.208 41.534L454.646 41.465L454.839 41.567L455.21 41.943L455.397 42.072L455.712 42.145L455.982 42.1L456.587 41.776L457.096 41.371L457.251 40.931L457.159 39.565L457.217 38.945L457.397 38.378L457.687 37.966L458.069 37.805L461.612 38.166L462.076 38.302L462.417 38.486L462.711 38.815L463.767 40.874L464.175 41.381L464.707 41.561L465.183 41.489L465.591 41.255L465.823 40.761L465.767 39.914L465.452 39.376L464.95 39.176L464.392 39.087L463.914 38.873L463.581 38.587L463.557 38.413L463.563 38.012L463.597 37.699L463.679 37.339L463.786 36.993L464.16 36.169L464.239 35.826L464.089 35.541L463.664 35.155L463.069 34.758L462.863 34.47L462.82 33.986L463.155 33.766L465.123 34.069L465.72 34.423L466.392 35.155L466.952 36.077L467.218 37.005L467.422 37.338L468.25 37.624L468.48 38.148L468.405 38.543L467.781 39.945L469.402 40.586L471.121 41.265L471.147 41.362L471.104 41.489L471.008 41.633L470.826 42.057L470.599 42.143L470.337 42.089L470.037 42.095L469.966 42.199L469.833 42.586L469.76 42.685L469.59 42.682L469.041 42.477L468.863 42.581L468.835 42.927L468.891 43.331L468.957 43.611L469.288 44.12L469.709 44.5L469.954 44.95L469.757 45.673V45.679L469.31 46.781L469.123 47.401L469.127 47.898L469.475 48.261L470.04 48.407L470.622 48.35L471.006 48.103L471.755 47.188L472.223 46.342L472.457 46.143L472.734 46.167L474.575 46.964L475.054 46.745L474.957 45.671L474.609 44.776L474.257 44.133L473.815 43.783L473.188 43.762L471.598 44.101L471.484 43.877L471.587 43.326L471.776 42.726L471.924 42.361L472.752 41.478L473.679 41.283L476.091 41.56L478.413 41.828L479.437 41.691L479.705 41.822L479.915 42.235L480.009 42.778L480.067 43.973L480.917 44.396L481.127 44.808L481.292 45.677L481.625 46.084L483.943 46.621L487.016 47.334L487.263 47.256L487.36 47.018L487.396 46.664L487.45 46.354L487.604 46.24L488.171 46.283L488.341 46.343L488.568 46.551L488.986 47.061L489.214 47.12L489.654 46.987L489.873 46.793L489.937 46.402L489.907 45.678V45.675L490.059 45.112L491.121 44.843L491.439 44.374L491.375 43.997L491.212 43.664L491.15 43.405L491.386 43.249L492.343 43.025L492.635 43.105L492.658 43.215L492.716 43.855L492.898 43.952L493.907 43.659L493.119 48.487L492.861 49.306L492.477 49.713L491.981 49.817L489.281 49.283L488.749 49.319L488.313 49.571L487.935 50.037L487.577 50.711L488.421 51.315L486.783 51.954L486.489 52.335L486.043 55.07L485.268 55.212L484.924 55.401L484.651 55.779L484.482 56.368L484.564 56.771L485.178 57.489L484.667 58.523L487.577 60.107L486.779 61.956L487.934 62.847L488.172 62.77L488.654 62.284L489.975 60.953H489.977V60.95L490.391 60.512L490.548 60.273L490.698 59.948L490.863 59.409L490.925 59.106L491.043 58.939L491.367 58.81L491.504 58.796L491.938 58.871L492.097 58.799L492.142 58.587L492.159 58.315L492.284 57.84L492.288 57.596L492.318 57.401L492.443 57.329L493.832 57.384L494.135 57.467L494.76 57.831L495.041 57.73L496.299 56.702L496.868 56.488L497.458 56.477L498.183 56.609L499.394 56.768L499.656 56.932L499.746 57.415L499.718 58L499.742 58.496L499.997 58.71L500.555 58.743L500.755 58.608L501.09 57.865L501.285 57.741L502.48 57.771L502.65 57.845L502.867 58.232L502.981 58.661L503.15 59L503.509 59.108L503.378 59.807L503.496 60.263L504.155 60.951L504.157 60.957H504.159L505.114 61.754L505.648 61.873L506.024 61.407L506.889 58.604L506.863 58.371L506.666 58.114L506.34 57.793L506.235 57.588L506.396 56.049L506.555 55.444L506.827 55.091L509.78 55.222L509.967 55.02L510.287 53.576L510.469 53.154L510.623 52.953L510.835 52.888L511.753 52.825L511.927 52.64L512.081 52.204L512.279 51.315L512.421 50.885L512.599 50.63L513.219 50.421L514.71 50.462L515.352 50.627L516.745 51.377L517.236 51.333L519.588 49.582L521.758 47.969L524.593 45.855L523.265 43.608L524.506 42.667L525.143 42.344L525.785 42.29L527.657 42.53L528.331 42.396L529.252 41.956L530.353 41.43L532.405 40.446L535.605 38.912L538.176 37.68L537.961 36.965L537.922 36.448L538.055 35.971L538.36 35.386L538.738 34.872L539.09 34.71L542.693 35.666L543.479 35.463L544.63 34.596L545.025 34.436L545.302 34.42L545.856 34.489L546.133 34.447L546.457 34.118L546.536 33.581L546.544 32.963L546.654 32.385L547.034 31.945L547.551 31.828L548.564 31.926L549.015 31.852L550.288 31.177L550.649 31.068L551.076 31.094L551.34 31.382L551.215 32.066L550.891 32.371L549.425 32.764L549.099 32.99L548.698 33.372L548.487 33.802L548.725 34.177L549.626 34.456L549.959 34.764L550.122 35.488L550.023 36.276L549.718 36.873L549.342 37.398L549.02 37.964L548.801 38.868L548.66 39.192L548.456 39.459L548.003 39.885L547.823 40.174L546.887 41.31L545.786 41.27L543.479 40.385L542.322 40.334L541.978 40.455L541.671 40.686L541.63 40.887L543.48 44.146L543.59 44.512L543.819 45.676L544.371 46.629L545.916 47.878L548.142 49.675L551.501 52.382L554.86 55.085L558.219 57.781L561.578 60.472L564.065 62.46L566.259 64.924L567.179 65.955L568.667 67.622L570.652 70.756L571.875 72.913L573.834 76.362L575.793 79.803L577.754 83.234L579.714 86.655L582.277 91.45L584.842 96.229L587.409 100.989L589.972 105.732L589.974 105.734H589.976L591.91 109.395L593.842 113.049L594.711 114.687L595.775 116.691L597.709 120.323L599.329 123.804L600.947 127.275L602.568 130.735L604.186 134.187L605.025 135.973L605.991 138.027L606.504 139.53L606.708 139.982L607.135 140.613L607.7 141.22L608.31 141.62L608.872 141.641L607.878 140.023L607.593 139.145L608.207 138.777L608.527 138.941L609.154 139.658L609.472 139.847L609.899 139.785L610.113 139.495L610.36 138.562L610.598 138.109L610.855 137.918L611.568 137.606L611.729 137.451L611.991 137.088L612.156 136.964L612.379 136.921L613.119 137.008L613.84 136.861L614.613 136.445L615.268 135.746L615.637 134.755L615.704 134.319L615.738 133.804L615.729 133.289L615.667 132.851L615.497 132.433L614.997 131.898L614.752 131.531L614.69 131.175L614.699 130.642L614.804 129.701L614.959 129.149L615.184 128.773L615.504 128.562L615.94 128.513L617.483 128.731L618.17 128.545L618.41 127.815L618.44 127.359L618.573 126.929L618.771 126.542L618.999 126.216L619.353 125.901L619.683 125.847L622.108 127.031L622.578 127.132L622.795 126.927L622.968 126.603L623.301 126.343L623.722 126.38L623.876 126.767L623.913 127.772L624.057 128.329L624.271 128.629L624.995 129.05L625.83 129.445L626.242 129.557L626.7 129.601L627.211 129.056L627.474 128.911L627.834 128.953L628.183 129.182L628.303 129.536L628.254 130.021L628.095 130.639L626.887 133.662L626.408 135.414L626.362 135.82L626.485 136.068L626.841 136.252L627.32 136.366L628.307 136.321L630.456 135.62L632.691 135.722L632.699 136.758L632.969 137.713L633.393 138.571L633.875 139.313L633.487 139.895L633.15 140.616L633.017 141.35L633.24 141.971L633.768 142.268L637.643 142.106L638.062 141.849L638.579 141.003L638.912 140.709L639.262 140.725L639.94 141.196L640.33 141.257L641.645 141.015L642.557 141.158L643.372 141.431L643.775 141.703L644.872 142.687L645.278 142.902L646.216 143.088L646.693 143.047L647.148 142.883L647.471 142.579L647.828 142.15L648.18 141.843L648.495 141.905L648.771 142.066L649.002 141.966L649.229 141.771L649.496 141.647L649.728 141.699L649.911 141.835L650.113 141.932L650.942 141.753L651.341 141.96L652.166 142.734L654.492 141.163L655.733 140.571L656.191 139.965L656.227 137.961L656.706 137.395L657.396 137.225L658.838 137.653L661.225 137.934L662.051 137.651L662.71 136.924L663.221 135.909L663.61 134.758L663.788 134.703L663.97 134.684L664.154 134.7L664.62 134.878L664.916 134.912L665.212 134.869L665.504 134.758L667.528 134.478L669.524 134.758L670.032 135.571L670.303 135.885L670.69 136.113L672.708 136.497L673.123 136.704L674.172 137.649L674.575 137.924L674.934 137.998L675.759 138.004L676.163 138.112L676.526 138.331L676.848 138.667L677.417 139.665L677.655 139.934L678.365 140.256L678.883 140.836L678.868 142.622L679.341 143.521L681.384 144.996L681.622 145.167L682.189 145.959L682.358 146.508L682.407 146.947L682.519 147.331L683.148 148.03L683.323 148.5L683.365 149.02L682.981 150.553L683.254 151.444L683.735 152.295L684.115 153.232L684.16 153.876L684.117 154.515L684.12 155.111L684.307 155.628L684.521 155.806L685.06 155.964L685.292 156.1L685.432 156.294L685.653 156.767L685.78 156.941L686.458 156.988L687.119 156.451L687.762 156.061L688.396 156.557L688.918 157.192L689.482 157.577L690.09 157.73L690.755 157.676L691.407 157.747L691.855 158.167L692.266 158.702L692.826 159.108L693.149 159.143L693.785 159.06L694.101 159.217L694.298 159.47L694.744 160.514L694.971 160.68L695.283 160.567L695.607 160.353L695.864 160.232L696.268 160.279L697.455 160.839L697.653 161.07L698.258 162.024L698.407 162.377L698.355 162.839L698.064 163.015L697.255 163.157H697.253L697.209 163.182L697.075 163.221L697 164.828L697.071 165.568L697.455 165.93L698.485 166.184L698.914 166.51L699.176 167.157L699.27 168.174L699.375 168.563L699.673 169.062L700.853 170.41L701.249 171.219L701.429 173.434L701.947 174.268L702.662 174.664L703.381 174.425L703.699 174.164L704.092 173.921L704.494 173.755L704.853 173.712L705.274 173.881L706.066 174.472L706.514 174.622L707.194 174.559L707.522 174.454L707.848 174.283L708.419 173.779L708.716 173.613L709.036 173.673L709.282 173.97L709.533 174.778L709.785 175.128L710.095 175.253L710.398 175.184L711.045 174.902L711.437 174.903L711.751 175.074L712.02 175.375L712.29 175.771L712.558 175.919L712.889 175.794L713.492 175.335L713.853 175.174L714.199 175.152L714.937 175.276L714.965 175.513L714.78 176.655L714.772 177.134L715.041 177.453L715.344 177.531L715.653 177.412L715.939 177.136H715.942L716.514 176.501L717.292 176.205L718.035 176.375L718.491 177.131L719.226 177.956L719.896 177.044L720.478 175.544L720.944 174.608L721.983 173.866L723.112 173.455L724.316 172.32L724.628 172.176L724.742 172.006L724.764 171.745L724.704 171.438L724.579 171.129L725.43 170.612L725.515 170.537L725.751 170.26L725.899 170.171L726.019 170.18L726.128 170.205L726.253 170.17L726.612 169.685L726.801 169.102L727.07 168.693L727.654 168.739L728.424 169.177L728.701 169.19L729.255 169.056L729.573 169.044L729.764 169.165L729.776 169.47L729.649 169.797L729.483 170.113L729.378 170.385L729.43 170.727L729.628 171.036L730.07 171.502L729.703 171.879L729.357 172.147L728.988 172.29L728.111 172.361L727.737 172.657L727.085 173.59L726.811 174.102L726.735 174.511L726.872 174.893L727.22 175.326L727.654 175.618L728.045 175.619L728.867 175.422L729.285 175.529L730.551 176.32L730.948 176.682L730.922 177.139L730.766 177.691L730.761 178.329L731.033 178.793L731.494 179.127L732.419 179.588L732.919 179.993L732.878 180.258L732.604 180.552L732.412 181.052L732.556 181.419L732.924 181.819L734.135 182.794L734.36 183.026L734.439 183.246L734.444 183.637L734.578 183.906L734.797 184.078L735.046 184.184L735.51 184.24L737.04 184.098L737.581 184.214L738.082 184.436L739.057 185.119L739.345 185.693L739.717 187.64L740 188.421ZM68.518 296.516L68.654 295.904L68.726 295.33L68.823 294.942L69.037 294.767L69.249 294.723L69.345 294.727L69.435 294.71L69.777 294.727L69.929 294.662L70.034 294.57L70.115 294.598L70.211 294.901L70.043 295.431L69.922 295.671L69.777 295.772L69.715 295.922L69.839 296.906L69.683 297.451L69.319 297.803L68.903 297.903L68.593 297.691L68.452 297.125L68.518 296.516ZM66.888 301.1L66.396 301.413L65.824 301.349L65.242 301.015L64.963 300.744L64.879 300.516L64.854 300.23L64.746 299.798L64.562 299.451L63.879 298.753L63.552 298.129L63.553 297.587L64.562 295.301L64.746 295.094L65.029 294.944L65.859 294.729L65.835 295.174L64.773 295.78L64.499 296.394L64.44 296.747L64.183 297.388L64.125 297.787L64.185 298.198L64.344 298.534L64.577 298.697L64.857 298.579L64.86 299.219L64.925 299.834L65.131 300.295L65.553 300.476L65.751 300.55L65.91 300.702L66.093 300.833L66.363 300.842L66.954 300.381L67.23 300.302L66.888 301.1ZM77.276 299.674L77.533 300.071L77.586 300.214L77.201 300.127L76.962 300.189L76.716 300.341L76.445 300.394L76.37 300.232L76.52 299.97V299.815L76.339 299.75L76.281 299.596L76.362 299.343L76.241 299.021L75.412 298.47L75.148 298.016L75.179 297.609L75.32 297.599L75.457 297.969L75.75 298.326L76.085 298.411L76.35 298.283L76.52 298.09L76.629 297.931L76.732 297.946L76.784 298.127L76.859 298.257L76.992 298.283L77.111 298.556L77.154 299.124L77.151 299.424L77.276 299.674ZM112.59 284.983L112.702 285.452L112.767 285.863L112.764 286.384L112.304 286.596L111.413 286.255L110.699 285.674L110.205 285.063L110.037 284.502L110.295 284.11L110.594 283.89L110.789 283.713L110.869 283.512L110.816 283.339L110.906 283.236L111.55 283.284L111.904 283.393L112.23 283.845L112.49 284.588L112.59 284.983ZM60.586 262.821L60.875 263.555L60.928 264.157L60.57 265.341L60.265 265.524L59.852 265.167L59.581 264.551L58.748 262.19L58.73 261.702L59.274 261.683L60.038 262.165L60.392 262.494L60.586 262.821Z" fill="currentColor"/>
</svg>
